<svg width="32" height="32" viewBox="0 0 32 32" fill="none" xmlns="http://www.w3.org/2000/svg">
  <circle cx="16" cy="16" r="16" fill="#1e293b"/>
  <path d="M12 8 L12 6 Q12 5 13 5 L19 5 Q20 5 20 6 L20 8 L24 16 Q25 18 24 20 Q23 22 20.5 22 L11.5 22 Q9 22 8 20 Q7 18 8 16 L12 8 Z" fill="none" stroke="#8b5cf6" stroke-width="1.5" stroke-linejoin="round" stroke-linecap="round"/>
  <rect x="12.5" y="4" width="7" height="2" rx="0.5" fill="none" stroke="#8b5cf6" stroke-width="1.5"/>
  <path d="M9 16 Q10.5 15 13 16 Q14.5 17 16 16 Q17.5 15 19 16 Q20.5 17 23 16 L23 20.5 Q22 21 20.5 21 L11.5 21 Q10 21 9 20.5 L9 16 Z" fill="#10b981"/>
  <circle cx="13.5" cy="12.5" r="0.75" fill="#34d399" opacity="0.9"/>
  <circle cx="16" cy="11.25" r="0.625" fill="#34d399" opacity="0.8"/>
  <circle cx="18.5" cy="10" r="0.5" fill="#34d399" opacity="0.7"/>
  <circle cx="14.5" cy="8.75" r="0.375" fill="#6ee7b7" opacity="0.6"/>
  <circle cx="17.5" cy="7.5" r="0.25" fill="#6ee7b7" opacity="0.5"/>
</svg>